<svg id="visual" viewBox="0 0 900 600" width="900" height="600" xmlns="http://www.w3.org/2000/svg" xmlns:xlink="http://www.w3.org/1999/xlink" version="1.1"><path d="M0 324L25 322.3C50 320.7 100 317.3 150 308C200 298.7 250 283.3 300 287.8C350 292.3 400 316.7 450 333.7C500 350.7 550 360.3 600 349.8C650 339.3 700 308.7 750 308.7C800 308.7 850 339.3 875 354.7L900 370L900 601L875 601C850 601 800 601 750 601C700 601 650 601 600 601C550 601 500 601 450 601C400 601 350 601 300 601C250 601 200 601 150 601C100 601 50 601 25 601L0 601Z" fill="#68ba50"></path><path d="M0 356L25 355C50 354 100 352 150 352.5C200 353 250 356 300 352.3C350 348.7 400 338.3 450 345.3C500 352.3 550 376.7 600 388C650 399.3 700 397.7 750 386C800 374.3 850 352.7 875 341.8L900 331L900 601L875 601C850 601 800 601 750 601C700 601 650 601 600 601C550 601 500 601 450 601C400 601 350 601 300 601C250 601 200 601 150 601C100 601 50 601 25 601L0 601Z" fill="#57b458"></path><path d="M0 412L25 402.8C50 393.7 100 375.3 150 367.2C200 359 250 361 300 361.3C350 361.7 400 360.3 450 364.7C500 369 550 379 600 393.3C650 407.7 700 426.3 750 429.2C800 432 850 419 875 412.5L900 406L900 601L875 601C850 601 800 601 750 601C700 601 650 601 600 601C550 601 500 601 450 601C400 601 350 601 300 601C250 601 200 601 150 601C100 601 50 601 25 601L0 601Z" fill="#47ae60"></path><path d="M0 451L25 448.8C50 446.7 100 442.3 150 442.7C200 443 250 448 300 443.3C350 438.7 400 424.3 450 418.8C500 413.3 550 416.7 600 415.3C650 414 700 408 750 410.2C800 412.3 850 422.7 875 427.8L900 433L900 601L875 601C850 601 800 601 750 601C700 601 650 601 600 601C550 601 500 601 450 601C400 601 350 601 300 601C250 601 200 601 150 601C100 601 50 601 25 601L0 601Z" fill="#37a866"></path><path d="M0 499L25 491.8C50 484.7 100 470.3 150 470.3C200 470.3 250 484.7 300 482.7C350 480.7 400 462.3 450 455.8C500 449.3 550 454.7 600 464.5C650 474.3 700 488.7 750 492.8C800 497 850 491 875 488L900 485L900 601L875 601C850 601 800 601 750 601C700 601 650 601 600 601C550 601 500 601 450 601C400 601 350 601 300 601C250 601 200 601 150 601C100 601 50 601 25 601L0 601Z" fill="#27a26b"></path><path d="M0 535L25 534.2C50 533.3 100 531.7 150 525C200 518.3 250 506.7 300 502C350 497.3 400 499.7 450 499.5C500 499.3 550 496.7 600 497.7C650 498.7 700 503.3 750 507.3C800 511.3 850 514.7 875 516.3L900 518L900 601L875 601C850 601 800 601 750 601C700 601 650 601 600 601C550 601 500 601 450 601C400 601 350 601 300 601C250 601 200 601 150 601C100 601 50 601 25 601L0 601Z" fill="#159b70"></path><path d="M0 550L25 548.8C50 547.7 100 545.3 150 548C200 550.7 250 558.3 300 559C350 559.7 400 553.3 450 552.2C500 551 550 555 600 558.3C650 561.7 700 564.3 750 560.3C800 556.3 850 545.7 875 540.3L900 535L900 601L875 601C850 601 800 601 750 601C700 601 650 601 600 601C550 601 500 601 450 601C400 601 350 601 300 601C250 601 200 601 150 601C100 601 50 601 25 601L0 601Z" fill="#009473"></path></svg>